GIL12_free4_RRA_states
nRows=4
nColumns=47

# SIMM Motion File Header:
name GIL12_free4_RRA_states
datacolumns 47
datarows 4
otherdata 1
range 0.31267000000000017000 0.31417000000000017000
endheader
time	pelvis_tx	pelvis_ty	pelvis_tz	pelvis_tilt	pelvis_list	pelvis_rotation	hip_flexion_r	hip_adduction_r	hip_rotation_r	knee_angle_r	ankle_angle_r	subtalar_angle_r	mtp_angle_r	hip_flexion_l	hip_adduction_l	hip_rotation_l	knee_angle_l	ankle_angle_l	subtalar_angle_l	mtp_angle_l	lumbar_extension	lumbar_bending	lumbar_rotation	pelvis_tx_u	pelvis_ty_u	pelvis_tz_u	pelvis_tilt_u	pelvis_list_u	pelvis_rotation_u	hip_flexion_r_u	hip_adduction_r_u	hip_rotation_r_u	knee_angle_r_u	ankle_angle_r_u	subtalar_angle_r_u	mtp_angle_r_u	hip_flexion_l_u	hip_adduction_l_u	hip_rotation_l_u	knee_angle_l_u	ankle_angle_l_u	subtalar_angle_l_u	mtp_angle_l_u	lumbar_extension_u	lumbar_bending_u	lumbar_rotation_u
      0.31267000000000017000	      0.99572357379808307000	      0.68665294078548789000	     -0.29558838381558172000	      5.72552072487941550000	      1.48525159233006470000	     -0.90464054521702852000	     18.02825759882763300000	     -7.78281161985299350000	    -10.67217489740248300000	    -42.31341176232187000000	      2.21537833678406230000	      0.00000000000000132331	     -0.00000000000000624472	    -12.43712689232585900000	      7.08104029006557930000	      2.06839655534484910000	     -5.01776401891805080000	      8.43405017710628790000	      0.00000000000003703460	     -0.00000000000017406309	    -21.14249511668753500000	     -1.06400195288675930000	     -3.80038675723583500000	      0.98727102435609526000	     -0.12313259210557467000	      0.30552668595594196000	      3.79381308425783500000	    -17.38458717380062500000	      0.81824432619197829000	     73.39858546133702100000	     24.39439488017480400000	   -245.76147850499947000000	    341.50159667809004000000	      9.64505392164452320000	      0.00000000000000487324	     -0.00000000000003827998	   -159.05595783217990000000	    -36.43707511354433100000	     -1.87345881823222780000	    113.57418295988442000000	      3.75657144737854320000	      0.00000000000045841504	     -0.00000000000209565185	    -24.49226824580824100000	    -35.04300369550336600000	     85.42625098877070400000
      0.31317000000000017000	      0.99621723894554981000	      0.68659105811155940000	     -0.29543571979999439000	      5.72743153978695660000	      1.47670029163962010000	     -0.90430932992280155000	     18.06475529214776500000	     -7.77062855484415490000	    -10.79456354722450400000	    -42.14221712911301400000	      2.21988759595864460000	      0.00000000000000132659	     -0.00000000000000626376	    -12.51657290960796400000	      7.06293530254573200000	      2.06674920873288140000	     -4.96113066097645920000	      8.43601987086744560000	      0.00000000000003726004	     -0.00000000000017510279	    -21.15475670612654500000	     -1.08160000663554690000	     -3.75774511419820500000	      0.98739234602761916000	     -0.12439690457636905000	      0.30512332244428580000	      3.84941634645310680000	    -16.82085048595616400000	      0.50790769858072382000	     72.59042353269386200000	     24.33775612286033100000	   -243.78412046771157000000	    343.27806182048977000000	      8.39148511861700190000	      0.00000000000000709800	     -0.00000000000003684677	   -158.72801687582466000000	    -35.98267070377540500000	     -4.71194231370139870000	    112.95834421569759000000	      4.12237931177001830000	      0.00000000000046025401	     -0.00000000000210137627	    -24.55356101410152200000	    -35.34663671060317800000	     85.13680980907739100000
      0.31367000000000017000	      0.99671096891120670000	      0.68652854507095884000	     -0.29528326655968640000	      5.72937010321239800000	      1.46843051423480090000	     -0.90413132911189809000	     18.10084627923428600000	     -7.75847398952940460000	    -10.91594993526421400000	    -41.97013260012497000000	      2.22376933014005430000	      0.00000000000000133004	     -0.00000000000000628203	    -12.59585478854659300000	      7.04505781510057270000	      2.06368860413647770000	     -4.90480661141271930000	      8.43817268931651480000	      0.00000000000003748223	     -0.00000000000017613856	    -21.16704814376420900000	     -1.09934601747558850000	     -3.71525347765209490000	      0.98753027021850692000	     -0.12565407508321580000	      0.30468356020488913000	      3.90479156681747820000	    -16.25848009858891200000	      0.20542172194857028000	     71.77180369311302900000	     24.28036250023852800000	   -241.75226816026813000000	    345.06112705267486000000	      7.13496753038095210000	      0.00000000000000968186	     -0.00000000000003713303	   -158.39935258412055000000	    -35.52709231415788300000	     -7.52647587366281550000	    112.33688627739151000000	      4.48898374915632030000	      0.00000000000042709883	     -0.00000000000206975861	    -24.61165020583143800000	    -35.63483670239478600000	     84.82618777687410700000
      0.31417000000000017000	      0.99720477199986945000	      0.68646540521533472000	     -0.29513104225757669000	      5.73133629268091750000	      1.46044156305221210000	     -0.90410258590294079000	     18.13652535974836200000	     -7.74634831995075410000	    -11.03630680847555800000	    -41.79715494984321100000	      2.22702215200288790000	      0.00000000000000133590	     -0.00000000000000630073	    -12.67497214869663600000	      7.02740838105881420000	      2.05922686763172220000	     -4.84879470155480340000	      8.44050896089376760000	      0.00000000000003769362	     -0.00000000000017717009	    -21.17936782037736900000	     -1.11723227449693250000	     -3.67292242391005310000	      0.98768489910420820000	     -0.12690417078441013000	      0.30420769312310381000	      3.95993486157348910000	    -15.69760147703069300000	     -0.08913154087493448100	     70.94276817762961700000	     24.22220381983734700000	   -239.66637684022467000000	    346.85050352572188000000	      5.87598227443975410000	      0.00000000000001491602	     -0.00000000000003860328	   -158.07000825428838000000	    -35.07048939931556900000	    -10.31619941037419600000	    111.70986887682514000000	      4.85622453547068390000	      0.00000000000041266307	     -0.00000000000200942369	    -24.66652371722409100000	    -35.90762359314563000000	     84.49458261792445100000
